# xmcd CD database file
#
# Track frame offsets:
#	150
#	77386
#	115526
#	175456
#	239558
#	280173
#
# Disc length: 4225 seconds
#
# Revision: 0
# Processed by: cddbd v1.5.2PL0 Copyright (c) Steve Scherf et al.
# Submitted via: CDex 1.70beta2
#
DISCID=45107f06
DTITLE=Wah - Hidden in the Name 2
DYEAR=2001
DGENRE=New Age
TTITLE0=Amoe Mata
TTITLE1=Jai Ma 
TTITLE2=Kainchi Hare Krishna
TTITLE3=Radhel
TTITLE4=Come to Me 
TTITLE5=Om Namah Shivaya
EXTD=YEAR: 2001
EXTT0=
EXTT1=
EXTT2=
EXTT3=
EXTT4=
EXTT5=
PLAYORDER=
